<?xml version="1.0" standalone="no"?>
<!DOCTYPE svg PUBLIC "-//W3C//DTD SVG 20010904//EN"
 "http://www.w3.org/TR/2001/REC-SVG-20010904/DTD/svg10.dtd">
<svg version="1.0" xmlns="http://www.w3.org/2000/svg"
 width="64.000000pt" height="64.000000pt" viewBox="0 0 64.000000 64.000000"
 preserveAspectRatio="xMidYMid meet">
<metadata>
Created by potrace 1.11, written by Peter Selinger 2001-2013
</metadata>
<g transform="translate(0.000000,64.000000) scale(0.100000,-0.100000)"
fill="#000000" stroke="none">
<path d="M62 326 c2 -140 7 -258 11 -262 4 -4 13 -2 20 6 9 10 9 11 0 6 -7 -4
-13 -4 -14 1 -5 52 -3 153 3 171 4 12 14 22 23 22 13 0 15 -16 12 -104 l-3
-105 52 2 c33 1 50 5 45 12 -6 8 -7 147 -2 177 0 3 17 6 36 6 71 0 138 63 139
131 0 31 5 42 28 57 30 21 53 74 45 105 -5 17 0 19 54 19 l59 0 -3 -247 -2
-248 -58 1 c-31 0 -57 -2 -57 -5 0 -4 29 -7 65 -8 l65 -2 -2 257 -3 257 -258
3 -259 2 4 -254z"/>
<path d="M230 69 c0 -8 99 -9 104 0 2 3 -20 6 -50 6 -30 0 -54 -3 -54 -6z"/>
<path d="M350 68 c0 -4 9 -7 20 -5 29 5 33 13 5 13 -14 0 -25 -4 -25 -8z"/>
<path d="M410 70 c0 -6 7 -10 15 -10 8 0 15 2 15 4 0 2 -7 6 -15 10 -8 3 -15
1 -15 -4z"/>
</g>
</svg>
