<?xml version="1.0" standalone="no"?>
<!DOCTYPE svg PUBLIC "-//W3C//DTD SVG 20010904//EN"
 "http://www.w3.org/TR/2001/REC-SVG-20010904/DTD/svg10.dtd">
<svg version="1.0" xmlns="http://www.w3.org/2000/svg"
 width="1250.000000pt" height="1250.000000pt" viewBox="0 0 1250.000000 1250.000000"
 preserveAspectRatio="xMidYMid meet">
<metadata>
Created by potrace 1.11, written by Peter Selinger 2001-2013
</metadata>
<g transform="translate(0.000000,1250.000000) scale(0.100000,-0.100000)"
fill="#000000" stroke="none">
<path d="M4400 10222 c-71 -9 -220 -78 -220 -102 0 -4 8 -16 18 -27 9 -12 29
-36 43 -54 216 -276 444 -565 449 -569 3 -3 21 -25 40 -50 19 -25 66 -85 105
-135 39 -49 154 -196 256 -325 102 -129 315 -399 473 -600 159 -201 299 -378
312 -395 60 -76 428 -543 447 -567 12 -15 74 -93 137 -174 l115 -147 3 352 c1
194 -1 358 -5 365 -5 7 -21 30 -38 51 -16 21 -52 65 -78 99 -26 33 -53 68 -60
76 -7 8 -52 66 -102 129 -49 63 -144 183 -210 267 -66 83 -181 229 -255 323
-74 95 -173 220 -220 279 -47 60 -184 234 -305 388 -121 153 -222 281 -225
284 -3 3 -21 25 -40 50 -19 25 -38 50 -43 55 -4 6 -48 62 -98 125 -142 181
-155 195 -205 228 -87 58 -200 87 -294 74z"/>
<path d="M3675 9136 c-129 -52 -285 -164 -285 -205 0 -14 143 -241 179 -285
12 -14 19 -10 63 28 54 47 215 134 288 156 25 8 46 15 48 16 3 1 -39 97 -112
255 -37 82 -56 85 -181 35z"/>
<path d="M7055 9062 c-43 -7 -138 -45 -163 -65 -55 -45 -86 -84 -111 -137
l-26 -55 -2 -1240 c-1 -682 -2 -1248 -2 -1257 -1 -17 -25 -18 -354 -18 l-352
0 -165 302 c-91 167 -176 323 -189 348 -91 172 -266 309 -426 334 -148 24
-230 47 -305 87 -102 55 -114 70 -230 294 -45 88 -100 192 -120 230 -21 39
-68 129 -105 200 -37 72 -75 144 -85 160 -10 17 -41 75 -70 130 -30 55 -66
120 -80 145 -17 30 -25 53 -20 65 9 29 8 34 -29 103 -27 50 -40 64 -63 69 -15
3 -28 9 -28 14 0 4 -10 17 -22 29 -54 50 -216 3 -387 -113 -101 -69 -150 -141
-131 -192 6 -15 7 -37 4 -51 -10 -38 53 -151 92 -166 34 -12 50 -39 301 -513
53 -99 110 -207 128 -240 18 -33 65 -123 105 -200 40 -77 81 -151 90 -165 31
-46 48 -114 44 -184 -3 -72 -10 -98 -55 -219 -16 -42 -32 -102 -35 -132 l-6
-54 96 -136 c53 -75 96 -138 96 -140 0 -2 -32 -3 -70 -3 l-71 1 -74 121 c-41
67 -79 126 -85 133 -5 7 -10 15 -10 19 0 4 -68 73 -151 154 -131 127 -158 148
-198 158 -169 42 -296 45 -649 18 -56 -4 -58 17 -6 68 70 70 212 130 398 171
28 6 26 8 -109 140 -130 127 -147 141 -192 149 -10 2 -36 9 -58 14 -104 28
-373 31 -550 7 -42 -6 -85 4 -85 20 0 23 87 91 163 128 62 31 248 90 285 90 6
0 12 3 12 7 0 17 -215 213 -243 221 -31 9 -118 26 -180 35 -45 6 -280 5 -357
-2 -172 -16 -194 -12 -166 30 41 63 171 131 328 172 57 15 106 30 111 34 11 9
-504 513 -579 566 -78 56 -203 118 -285 143 -59 18 -79 23 -149 36 -54 11
-204 13 -258 5 -31 -5 -67 -11 -79 -13 -12 -2 -26 -6 -29 -10 -4 -4 -15 -7
-24 -7 -24 0 -124 -55 -162 -88 -145 -130 -67 -413 211 -756 68 -85 151 -168
765 -771 207 -203 520 -510 694 -682 l317 -312 -125 -1 c-98 0 -132 -4 -160
-18 -64 -32 -68 -49 -66 -350 1 -243 3 -271 20 -296 10 -16 31 -33 47 -39 16
-6 30 -16 30 -22 1 -5 2 -417 3 -915 2 -498 6 -930 10 -960 15 -115 38 -228
62 -310 26 -85 112 -282 126 -288 5 -2 8 -8 8 -14 0 -20 107 -164 179 -241
192 -203 430 -342 717 -415 237 -61 21 -57 3259 -57 1639 0 3012 3 3050 8 183
19 337 58 520 131 122 48 298 167 401 271 62 63 154 177 154 191 0 4 6 15 14
23 8 9 35 56 60 106 64 126 129 328 142 442 3 26 7 55 9 63 14 54 18 256 18
1061 l0 907 36 6 c40 6 74 35 89 76 5 14 10 142 10 285 -1 286 -3 300 -61 335
-31 20 -66 20 -2027 20 l-1996 0 -2 1232 c-2 757 -7 1249 -13 1276 -30 137
-150 243 -292 260 -34 4 -71 6 -82 4z"/>
<path d="M7579 7008 c-4 -62 0 -420 5 -425 3 -3 871 -6 1928 -6 l1923 0 0 24
c1 52 -17 127 -45 184 -27 56 -122 165 -143 165 -6 0 -18 6 -26 13 -9 7 -36
22 -61 33 -44 18 -92 19 -1812 22 -1423 2 -1768 0 -1769 -10z"/>
</g>
</svg>
